<?xml version="1.0" encoding="iso-8859-1"?>
<!-- Generator: Adobe Illustrator 19.0.0, SVG Export Plug-In . SVG Version: 6.00 Build 0)  -->
<svg version="1.1" id="Capa_1" xmlns="http://www.w3.org/2000/svg" xmlns:xlink="http://www.w3.org/1999/xlink" x="0px" y="0px"
	 viewBox="-100 -50 720 720" style="enable-background:new -100 -50 720 720;" xml:space="preserve">
<g>
	<g>
		<path d="M491.475,121.047l-46.216,18.273c3.775-10.921,5.733-22.466,5.733-34.324C450.992,47.101,403.89,0,345.995,0
			S240.999,47.101,240.999,104.996c0,14.718,3.008,28.961,8.785,42.115c-29.39-9.795-71.818-23.943-79.141-26.375
			c-3.803-1.236-6.919-0.87-10.469,0.435c-0.005,0.002-0.009,0.004-0.014,0.006L9.469,181.054c-5.711,2.27-9.461,7.794-9.461,13.94
			v301.989c0,10.658,10.771,17.821,20.538,13.94l145.907-57.977l174.8,58.267c0.032,0.011,0.065,0.017,0.097,0.028
			c3.791,1.235,6.916,0.875,10.475-0.433c0.005-0.002,0.009-0.004,0.014-0.006l150.692-59.877c5.712-2.27,9.461-7.794,9.461-13.94
			V134.995C511.99,124.427,501.318,117.155,491.475,121.047z M151.003,426.805L30.007,474.883v-269.71l120.996-48.078V426.805z
			 M330.997,476.172l-149.995-49.998V155.806l95.802,31.935l54.193,72.251V476.172z M345.996,229.994l-60.042-80.05
			c-9.784-13.042-14.956-28.584-14.956-44.947c0-41.354,33.643-74.997,74.997-74.997c41.354,0,74.997,33.644,74.997,74.997
			c0,16.362-5.172,31.905-14.956,44.948L345.996,229.994z M481.992,426.804l-120.996,48.078v-214.89l58.747-78.324l62.249-24.612
			V426.804z"/>
	</g>
</g>
<g>
	<g>
		<path d="M345.996,59.998c-24.812,0-44.998,20.186-44.998,44.998c0,24.812,20.185,44.998,44.998,44.998
			c24.812,0,44.998-20.186,44.998-44.998C390.995,80.184,370.808,59.998,345.996,59.998z M345.996,119.996
			c-8.271,0-14.999-6.729-14.999-14.999c0-8.271,6.728-15,14.999-15c8.271,0,14.999,6.729,14.999,15
			C360.996,113.267,354.267,119.996,345.996,119.996z"/>
	</g>
</g>
<g>
</g>
<g>
</g>
<g>
</g>
<g>
</g>
<g>
</g>
<g>
</g>
<g>
</g>
<g>
</g>
<g>
</g>
<g>
</g>
<g>
</g>
<g>
</g>
<g>
</g>
<g>
</g>
<g>
</g>
</svg>
